# xmcd
#
# Track frame offsets:
#	150
#	17903
#	32518
#	49921
#	60242
#
# Disc length: 960 seconds
#
# Revision: 0
# Processed by: cddbd v1.5.1PL2 Copyright (c) Steve Scherf et al.
# Submitted via: dBpowerAMP V4.0
#
DISCID=3503be05
DTITLE=Brock Zeman - Sample 1
DYEAR=1900
DGENRE=
TTITLE0=Bowe Lake Lane
TTITLE1=Sam Bauer
TTITLE2=Jefferson County
TTITLE3=Oh Train (Take Me Away)
TTITLE4=Still Hangin Round (Thoughts Of You)
EXTD=
EXTT0=
EXTT1=
EXTT2=
EXTT3=
EXTT4=
PLAYORDER=
